<?xml version="1.0" encoding="UTF-8" standalone="no"?>
<svg xmlns="http://www.w3.org/2000/svg" width="192" height="192" viewBox="0 0 192 192" fill="none">
  <rect width="192" height="192" rx="38" fill="#1e40af"/>
  <path d="M96 42C66.177 42 42 66.177 42 96C42 125.823 66.177 150 96 150C125.823 150 150 125.823 150 96C150 66.177 125.823 42 96 42ZM60 96C60 78.327 74.327 64 92 64H100C117.673 64 132 78.327 132 96C132 113.673 117.673 128 100 128H92C74.327 128 60 113.673 60 96Z" fill="white"/>
  <path d="M96 70C81.088 70 69 82.088 69 97C69 111.912 81.088 124 96 124C110.912 124 123 111.912 123 97C123 82.088 110.912 70 96 70ZM86 97C86 91.477 90.477 87 96 87C101.523 87 106 91.477 106 97C106 102.523 101.523 107 96 107C90.477 107 86 102.523 86 97Z" fill="#4f97ff"/>
</svg>